<svg xmlns="http://www.w3.org/2000/svg" id="mermaid-1557425697940" width="100%" height="100%" style="max-width:450px" viewBox="-50 -10 450 301"><style>#mermaid-1557425697940 .actor{stroke:#ccf;fill:#ececff}#mermaid-1557425697940 text.actor{fill:#000;stroke:none}#mermaid-1557425697940 .actor-line{stroke:gray}#mermaid-1557425697940 .messageLine0,#mermaid-1557425697940 .messageLine1{stroke-width:1.5;stroke-dasharray:&apos;2 2&apos;;stroke:#333}#mermaid-1557425697940 #arrowhead{fill:#333}#mermaid-1557425697940 #crosshead path{fill:#333!important;stroke:#333!important}#mermaid-1557425697940 .messageText{fill:#333;stroke:none}#mermaid-1557425697940 .labelBox{stroke:#ccf;fill:#ececff}#mermaid-1557425697940 .labelText,#mermaid-1557425697940 .loopText{fill:#000;stroke:none}#mermaid-1557425697940 .loopLine{stroke-width:2;stroke-dasharray:&apos;2 2&apos;;stroke:#ccf}</style><style>#mermaid-1557425697940{color:rgba(0,0,0,.65)}</style><g><line id="actor1158" x1="75" x2="75" y1="5" y2="290" stroke="#999" stroke-width=".5" class="actor-line"/><rect width="150" height="65" x="0" y="0" fill="#eaeaea" stroke="#666" class="actor" rx="3" ry="3"/><text x="75" y="32.5" alignment-baseline="central" class="actor" dominant-baseline="central" style="text-anchor:middle;font-size:14px;font-family:Open-Sans,sans-serif"><tspan x="75" dy="0">Runtime</tspan></text></g><g><line id="actor1159" x1="275" x2="275" y1="5" y2="290" stroke="#999" stroke-width=".5" class="actor-line"/><rect width="150" height="65" x="200" y="0" fill="#eaeaea" stroke="#666" class="actor" rx="3" ry="3"/><text x="275" y="32.5" alignment-baseline="central" class="actor" dominant-baseline="central" style="text-anchor:middle;font-size:14px;font-family:Open-Sans,sans-serif"><tspan x="275" dy="0">Client</tspan></text></g><defs><marker id="arrowhead" markerHeight="4" markerWidth="6" orient="auto" refX="5" refY="2"><path d="M 0,0 V 4 L6,2 Z"/></marker></defs><defs><marker id="crosshead" markerHeight="8" markerWidth="15" orient="auto" refX="16" refY="4"><path fill="#000" stroke="#000" stroke-width="1" d="M 9,2 V 6 L16,4 Z" style="stroke-dasharray:0,0"/><path fill="none" stroke="#000" stroke-width="1" d="M 0,1 L 6,7 M 6,1 L 0,7" style="stroke-dasharray:0,0"/></marker></defs><g><text x="175" y="93" class="messageText" style="text-anchor:middle">Diagnostic IPC Message</text><line x1="275" x2="75" y1="100" y2="100" stroke="#000" stroke-width="2" marker-end="url(#arrowhead)" class="messageLine0" style="fill:none"/></g><g><text x="175" y="128" class="messageText" style="text-anchor:middle">Diagnostic IPC Message</text><line x1="75" x2="275" y1="135" y2="135" stroke="#000" stroke-width="2" marker-end="url(#arrowhead)" class="messageLine1" style="stroke-dasharray:3,3;fill:none"/></g><g><text x="175" y="188" class="messageText" style="text-anchor:middle">Command Specific Communication</text><line x1="75" x2="275" y1="195" y2="195" stroke="#000" stroke-width="2" class="messageLine0" style="fill:none"/></g><g><line x1="65" x2="285" y1="145" y2="145" class="loopLine"/><line x1="285" x2="285" y1="145" y2="205" class="loopLine"/><line x1="65" x2="285" y1="205" y2="205" class="loopLine"/><line x1="65" x2="65" y1="145" y2="205" class="loopLine"/><polygon points="65 145 115 145 115 158 106.6 165 65 165" class="labelBox"/><text x="72.5" y="160" fill="#000" class="labelText"><tspan x="72.5" fill="#000">opt</tspan></text><text x="175" y="160" fill="#000" class="loopText" style="text-anchor:middle"><tspan x="175" fill="#000">[ Optional Continuation ]</tspan></text></g><g><rect width="150" height="65" x="0" y="225" fill="#eaeaea" stroke="#666" class="actor" rx="3" ry="3"/><text x="75" y="257.5" alignment-baseline="central" class="actor" dominant-baseline="central" style="text-anchor:middle;font-size:14px;font-family:Open-Sans,sans-serif"><tspan x="75" dy="0">Runtime</tspan></text></g><g><rect width="150" height="65" x="200" y="225" fill="#eaeaea" stroke="#666" class="actor" rx="3" ry="3"/><text x="275" y="257.5" alignment-baseline="central" class="actor" dominant-baseline="central" style="text-anchor:middle;font-size:14px;font-family:Open-Sans,sans-serif"><tspan x="275" dy="0">Client</tspan></text></g></svg>